#!OML:ASF H:\LiuWeirdWalks\Patient Classification 1\Patient 1\Session 1\male.ASF
:FULLY-SPECIFIED
:DEGREES
277
root 1.49417 17.5467 21.1908 3.82802 9.5689 9.05966
lowerback 5.94451 -3.23778 -12.0427
upperback -1.1411 -5.2109 0.24243
thorax -3.46461 -2.32902 7.41744
lowerneck -21.6416 1.49007 6.48477
upperneck 20.1307 1.42868 -6.08144
head 10.0775 0.428702 -3.02306
rclavicle 3.17807e-014 1.11319e-014
rhumerus -62.6106 -27.5323 -42.7028
rradius 8.31347
rwrist 31.1395
rhand -17.0771 -7.67679
rfingers 7.12502
rthumb 9.1609 -37.4578
lclavicle 3.17807e-014 1.11319e-014
lhumerus -15.3478 -7.01365 82.5273
lradius 53.1648
lwrist 24.2244
lhand -16.4646 -7.58845
lfingers 7.12502
lthumb 9.75193 22.1658
rfemur -37.2586 -8.72993 10.42
rtibia 26.7368
rfoot -13.5527 -20.8645
rtoes -13.695
lfemur 19.9048 -4.2539 -28.6389
ltibia 11.2846
lfoot -2.79758 4.07456
ltoes -30.3352
278
root 1.48574 17.5227 21.5229 3.59169 9.77448 8.7406
lowerback 5.94813 -3.02595 -11.5844
upperback -1.04115 -4.8842 0.364751
thorax -3.45338 -2.18096 7.27195
lowerneck -21.7112 1.12609 5.82839
upperneck 20.0665 1.08538 -5.88504
head 10.0373 0.241258 -2.89274
rclavicle -7.31528e-014 3.18055e-015
rhumerus -63.607 -27.0607 -42.3678
rradius 8.26803
rwrist 30.9918
rhand -17.3296 -7.66058
rfingers 7.12502
rthumb 8.91731 -37.4521
lclavicle -7.31528e-014 3.18055e-015
lhumerus -14.7664 -7.17921 82.7054
lradius 54.1135
lwrist 25.1295
lhand -16.4065 -8.43065
lfingers 7.12502
lthumb 9.80798 21.3209
rfemur -36.6686 -8.8686 10.9674
rtibia 27.7749
rfoot -13.3801 -19.3086
rtoes -13.8554
lfemur 19.7232 -4.69754 -28.2208
ltibia 13.7967
lfoot -1.7736 3.67768
ltoes -31.5174
279
root 1.47654 17.4996 21.8605 3.30884 9.88506 8.45542
lowerback 5.86484 -2.91814 -11.4269
upperback -0.885753 -4.70019 0.583516
thorax -3.27198 -2.10984 7.39428
lowerneck -21.6709 0.962562 5.44348
upperneck 19.9051 0.991073 -5.92016
head 9.96423 0.163294 -2.85126
rclavicle -2.83268e-014 -2.22639e-014
rhumerus -64.081 -26.4271 -42.3981
rradius 8.18543
rwrist 30.9701
rhand -17.4211 -7.6217
rfingers 7.12502
rthumb 8.82904 -37.417
lclavicle -2.83268e-014 -2.22639e-014
lhumerus -14.2887 -6.79847 82.7908
lradius 54.9342
lwrist 26.1879
lhand -16.3813 -8.9195
lfingers 7.12502
lthumb 9.83233 20.8309
rfemur -35.9834 -8.80137 11.4139
rtibia 28.9852
rfoot -13.142 -17.8966
rtoes -13.8356
lfemur 19.5114 -4.98927 -27.8227
ltibia 16.3309
lfoot -0.33447 3.05026
ltoes -32.4995
280
root 1.46578 17.4808 22.2009 3.01475 9.92163 8.21565
lowerback 5.65938 -3.01203 -11.7842
upperback -0.638302 -4.79437 0.99211
thorax -2.81049 -2.18961 8.00858
lowerneck -21.6291 1.12571 5.43079
upperneck 19.6852 1.30699 -6.29069
head 9.90207 0.263841 -2.93059
rclavicle 5.41191e-014 -6.36111e-015
rhumerus -63.655 -25.5024 -42.9779
rradius 7.9874
rwrist 31.0841
rhand -17.4003 -7.5587
rfingers 7.12502
rthumb 8.84905 -37.3532
lclavicle 5.41191e-014 -6.36111e-015
lhumerus -13.8775 -5.55089 82.7447
lradius 55.6361
lwrist 27.3613
lhand -16.4671 -9.00917
lfingers 7.12502
lthumb 9.74951 20.7452
rfemur -35.2845 -8.48261 11.7265
rtibia 30.2678
rfoot -12.6335 -16.8196
rtoes -13.6809
lfemur 19.169 -5.13385 -27.438
ltibia 18.9294
lfoot 1.60047 2.17099
ltoes -33.1474
281
root 1.45418 17.4691 22.5423 2.71631 9.91936 7.99934
lowerback 5.37685 -3.3813 -12.6011
upperback -0.282901 -5.26504 1.53022
thorax -2.0465 -2.48236 9.02244
lowerneck -21.6581 1.71575 6.02064
upperneck 19.4344 2.10634 -7.0526
head 9.88869 0.5872 -3.17964
rclavicle 1.22253e-014 3.57812e-014
rhumerus -62.1983 -24.2467 -44.3113
rradius 7.59365
rwrist 31.3647
rhand -17.3913 -7.46829
rfingers 7.12502
rthumb 8.8578 -37.2624
lclavicle 1.22253e-014 3.57812e-014
lhumerus -13.5403 -3.34461 82.3785
lradius 56.2437
lwrist 28.566
lhand -16.6698 -8.73239
lfingers 7.12502
lthumb 9.55398 21.031
rfemur -34.6171 -7.95412 11.9358
rtibia 31.5489
rfoot -11.7343 -16.1696
rtoes -13.3227
lfemur 18.6347 -5.18207 -27.0475
ltibia 21.6401
lfoot 4.07395 1.10898
ltoes -33.2608
282
root 1.44277 17.466 22.8824 2.41768 9.90678 7.73387
lowerback 5.0463 -3.87754 -13.5752
upperback 0.123557 -5.90119 2.14052
thorax -1.10667 -2.88679 10.1931
lowerneck -21.6389 2.4953 6.87371
upperneck 19.1416 3.12771 -8.0067
head 9.89083 1.01208 -3.50744
rclavicle 8.44835e-016 3.18055e-015
rhumerus -60.2562 -22.8358 -45.9182
rradius 7.09981
rwrist 31.7534
rhand -17.3425 -7.32666
rfingers 7.12502
rthumb 8.90485 -37.1188
lclavicle 8.44835e-016 3.18055e-015
lhumerus -13.3025 -0.644012 81.9287
lradius 56.7436
lwrist 29.6744
lhand -16.9808 -8.26849
lfingers 7.12502
lthumb 9.25385 21.5084
rfemur -34.0156 -7.3326 12.166
rtibia 32.7889
rfoot -10.3684 -15.9256
rtoes -12.6831
lfemur 17.8586 -5.17605 -26.5806
ltibia 24.5012
lfoot 7.07804 -0.0523186
ltoes -32.6768
283
root 1.43093 17.4712 23.2202 2.09842 9.8585 7.29046
lowerback 4.73955 -4.36735 -14.3365
upperback 0.522852 -6.52002 2.74884
thorax -0.175411 -3.29955 11.2349
lowerneck -21.591 3.28384 7.78821
upperneck 18.8602 4.14724 -8.9788
head 9.915 1.44003 -3.85184
rclavicle 6.84813e-014 -4.45278e-014
rhumerus -58.2803 -21.4518 -47.5209
rradius 6.56762
rwrist 32.2289
rhand -17.272 -7.1485
rfingers 7.12502
rthumb 8.97288 -36.9377
lclavicle 6.84813e-014 -4.45278e-014
lhumerus -13.1874 2.08982 81.4777
lradius 57.1195
lwrist 30.6553
lhand -17.3867 -7.73367
lfingers 7.12502
lthumb 8.86219 22.0602
rfemur -33.4675 -6.64619 12.6056
rtibia 33.9644
rfoot -8.68053 -15.9891
rtoes -11.6611
lfemur 16.8322 -5.12442 -25.9057
ltibia 27.5358
lfoot 10.5347 -1.21253
ltoes -31.1014
284
root 1.42203 17.4824 23.5534 1.7579 9.80777 6.6596
lowerback 4.53869 -4.73214 -14.5779
upperback 0.835799 -6.9697 3.25737
thorax 0.507243 -3.61057 11.8834
lowerneck -21.4907 3.88834 8.53122
upperneck 18.6654 4.93298 -9.77079
head 9.94771 1.76976 -4.13916
rclavicle -6.36111e-015 2.62396e-014
rhumerus -56.7264 -20.2958 -48.8694
rradius 6.09514
rwrist 32.7494
rhand -17.1457 -6.93184
rfingers 7.12502
rthumb 9.09475 -36.7158
lclavicle -6.36111e-015 2.62396e-014
lhumerus -13.2361 4.38802 81.1045
lradius 57.363
lwrist 31.4287
lhand -17.8356 -7.1673
lfingers 7.12502
lthumb 8.42899 22.6445
rfemur -32.9204 -6.12762 13.3208
rtibia 35.0613
rfoot -6.9821 -16.0846
rtoes -10.2917
lfemur 15.5707 -5.07997 -25.0386
ltibia 30.75
lfoot 14.3346 -2.33887
ltoes -28.2526
285
root 1.41629 17.4969 23.8818 1.39781 9.73507 5.85227
lowerback 4.4609 -4.89948 -14.2004
upperback 1.01896 -7.15545 3.63937
thorax 0.812088 -3.74545 12.0653
lowerneck -21.3222 4.21246 8.98484
upperneck 18.5497 5.37096 -10.3008
head 9.95329 1.9498 -4.33807
rclavicle 3.73715e-014 -7.15625e-014
rhumerus -55.826 -19.4728 -49.8415
rradius 5.77286
rwrist 33.2864
rhand -16.9388 -6.68874
rfingers 7.12502
rthumb 9.29444 -36.4639
lclavicle 3.73715e-014 -7.15625e-014
lhumerus -13.487 5.99486 80.8587
lradius 57.4976
lwrist 32.0323
lhand -18.3825 -6.70307
lfingers 7.12502
lthumb 7.90116 23.1293
rfemur -32.3171 -5.82091 14.3178
rtibia 36.0637
rfoot -5.57474 -16.1044
rtoes -8.60729
lfemur 14.1126 -5.03266 -23.9984
ltibia 34.1192
lfoot 18.2086 -3.42057
ltoes -24.2253
286
root 1.41299 17.5124 24.2057 1.03013 9.63318 4.93462
lowerback 4.49804 -4.84422 -13.2415
upperback 1.06871 -7.04003 3.86778
thorax 0.719057 -3.67861 11.773
lowerneck -21.1637 4.23236 9.11773
upperneck 18.5805 5.42252 -10.5127
head 9.95215 1.96344 -4.4308
rclavicle -7.51406e-014 4.21423e-014
rhumerus -55.6153 -19.0758 -50.4442
rradius 5.61971
rwrist 33.8122
rhand -16.6278 -6.45568
rfingers 7.12502
rthumb 9.5945 -36.2172
lclavicle -7.51406e-014 4.21423e-014
lhumerus -13.913 6.76581 80.7283
lradius 57.524
lwrist 32.474
lhand -19.0345 -6.16775
lfingers 7.12502
lthumb 7.27181 23.6873
rfemur -31.6108 -5.71997 15.5166
rtibia 36.9613
rfoot -4.67636 -16.0765
rtoes -6.76416
lfemur 12.5135 -4.97142 -22.8599
ltibia 37.593
lfoot 21.5576 -4.33211
ltoes -20.1569
287
root 1.41104 17.5287 24.5265 0.659292 9.51312 3.99415
lowerback 4.57915 -4.63487 -11.9948
upperback 1.05774 -6.71047 4.00826
thorax 0.43084 -3.48183 11.2287
lowerneck -21.0205 4.03738 8.97926
upperneck 18.6786 5.20698 -10.4839
head 9.9315 1.86039 -4.4328
rclavicle 3.75703e-014 -2.78299e-014
rhumerus -55.8031 -19.0068 -50.7803
rradius 5.64643
rwrist 34.2651
rhand -16.2351 -6.20216
rfingers 7.12502
rthumb 9.97332 -35.9459
lclavicle 3.75703e-014 -2.78299e-014
lhumerus -14.4187 6.92809 80.7225
lradius 57.4525
lwrist 32.7745
lhand -19.7792 -5.63322
lfingers 7.12502
lthumb 6.55298 24.2454
rfemur -30.7647 -5.78057 16.7857
rtibia 37.7384
rfoot -4.36165 -16.0117
rtoes -4.94091
lfemur 10.8393 -4.88125 -21.7096
ltibia 41.1034
lfoot 23.9633 -4.97892
ltoes -16.7744
